<svg viewBox="0 0 46 60" fill="none" xmlns="http://www.w3.org/2000/svg">
    <path d="M0 4a4 4 0 0 1 4-4h38a4 4 0 0 1 4 4v52a4 4 0 0 1-4 4H4a4 4 0 0 1-4-4V4Z" fill="url(#a)" />
    <path
        d="M12 11a1 1 0 0 1 1-1h6a1 1 0 0 1 1 1v6a1 1 0 0 1-1 1h-6a1 1 0 0 1-1-1v-6Zm15 0a1 1 0 0 1 1-1h6a1 1 0 0 1 1 1v6a1 1 0 0 1-1 1h-6a1 1 0 0 1-1-1v-6Zm0 14a1 1 0 0 1 1-1h6a1 1 0 0 1 1 1v6a1 1 0 0 1-1 1h-6a1 1 0 0 1-1-1v-6Zm-15 0a1 1 0 0 1 1-1h6a1 1 0 0 1 1 1v6a1 1 0 0 1-1 1h-6a1 1 0 0 1-1-1v-6Z"
        fill="#9D9FA4" />
    <path
        d="M15.038 14.757a.124.124 0 0 1 .08.158l-.126.375a.125.125 0 1 1-.237-.079l.125-.375a.125.125 0 0 1 .158-.08Zm.75 0a.125.125 0 0 1 .08.158l-.25.75a.126.126 0 0 1-.11.09.126.126 0 0 1-.123-.071.124.124 0 0 1-.005-.098l.25-.75a.125.125 0 0 1 .158-.08Zm.75 0a.125.125 0 0 1 .08.158l-.125.375a.127.127 0 0 1-.063.076.125.125 0 0 1-.17-.057.124.124 0 0 1-.005-.098l.125-.375a.125.125 0 0 1 .159-.08Zm.75 0a.126.126 0 0 1 .086.11.124.124 0 0 1-.006.048l-.25.75a.126.126 0 0 1-.11.09.126.126 0 0 1-.123-.071.124.124 0 0 1-.005-.098l.25-.75a.125.125 0 0 1 .159-.08Zm.062-1.75a1.25 1.25 0 0 0-2.375-.25.874.874 0 0 0-.447 1.672.893.893 0 0 0 .346.072h2.375a.75.75 0 0 0 .101-1.494Z"
        fill="#fff" fill-opacity=".5" />
    <path
        d="M15.038 28.757a.124.124 0 0 1 .08.158l-.126.375a.125.125 0 1 1-.237-.079l.125-.375a.125.125 0 0 1 .158-.08Zm.75 0a.125.125 0 0 1 .08.158l-.25.75a.126.126 0 0 1-.11.09.126.126 0 0 1-.123-.071.124.124 0 0 1-.005-.098l.25-.75a.125.125 0 0 1 .158-.08Zm.75 0a.125.125 0 0 1 .08.158l-.125.375a.127.127 0 0 1-.063.076.125.125 0 0 1-.17-.057.124.124 0 0 1-.005-.098l.125-.375a.125.125 0 0 1 .159-.08Zm.75 0a.126.126 0 0 1 .086.11.124.124 0 0 1-.006.048l-.25.75a.126.126 0 0 1-.11.09.126.126 0 0 1-.123-.071.124.124 0 0 1-.005-.098l.25-.75a.125.125 0 0 1 .159-.08Zm.062-1.75a1.25 1.25 0 0 0-2.375-.25.874.874 0 0 0-.447 1.672.893.893 0 0 0 .346.072h2.375a.75.75 0 0 0 .101-1.494Zm12.688-12.25a.124.124 0 0 1 .08.158l-.126.375a.125.125 0 1 1-.237-.079l.125-.375a.125.125 0 0 1 .158-.08Zm.75 0a.125.125 0 0 1 .08.158l-.25.75a.126.126 0 0 1-.11.09.126.126 0 0 1-.123-.071.124.124 0 0 1-.005-.098l.25-.75a.125.125 0 0 1 .158-.08Zm.75 0a.125.125 0 0 1 .08.158l-.125.375a.127.127 0 0 1-.063.076.125.125 0 0 1-.17-.057.124.124 0 0 1-.005-.098l.125-.375a.125.125 0 0 1 .159-.08Zm.75 0a.126.126 0 0 1 .086.11.124.124 0 0 1-.006.048l-.25.75a.126.126 0 0 1-.11.09.126.126 0 0 1-.123-.071.124.124 0 0 1-.005-.098l.25-.75a.125.125 0 0 1 .159-.08Zm.062-1.75a1.25 1.25 0 0 0-2.375-.25.874.874 0 0 0-.447 1.672.893.893 0 0 0 .346.072h2.375a.75.75 0 0 0 .101-1.494Zm-2.312 15.75a.124.124 0 0 1 .08.158l-.126.375a.125.125 0 1 1-.237-.079l.125-.375a.125.125 0 0 1 .158-.08Zm.75 0a.125.125 0 0 1 .08.158l-.25.75a.126.126 0 0 1-.11.09.126.126 0 0 1-.123-.071.124.124 0 0 1-.005-.098l.25-.75a.125.125 0 0 1 .158-.08Zm.75 0a.125.125 0 0 1 .08.158l-.125.375a.127.127 0 0 1-.063.076.125.125 0 0 1-.17-.057.124.124 0 0 1-.005-.098l.125-.375a.125.125 0 0 1 .159-.08Zm.75 0a.126.126 0 0 1 .086.11.124.124 0 0 1-.006.048l-.25.75a.126.126 0 0 1-.11.09.126.126 0 0 1-.123-.071.124.124 0 0 1-.005-.098l.25-.75a.125.125 0 0 1 .159-.08Zm.062-1.75a1.25 1.25 0 0 0-2.375-.25.874.874 0 0 0-.447 1.672.893.893 0 0 0 .346.072h2.375a.75.75 0 0 0 .101-1.494Z"
        fill="#fff" fill-opacity=".75" />
    <path d="M12 48h20v2H12v-2Zm0-4h16v2H12v-2Z" fill="#D9D9D9" fill-opacity=".5" />
    <defs>
        <linearGradient id="a" x1="23" y1="0" x2="23" y2="60" gradientUnits="userSpaceOnUse">
            <stop stop-color="#434343" />
            <stop offset="1" stop-color="#31373D" />
        </linearGradient>
    </defs>
</svg>
  