<svg xmlns="http://www.w3.org/2000/svg" viewBox="0 0 48 48" width="48" height="48">
    <path fill="#64b5f6" d="M20 4a13 13 0 1 0 0 26 13 13 0 1 0 0-26Z" />
    <path fill="#bbdefb"
        d="M13.1 18h-.3c-1.1-.2-1.9-1.2-1.7-2.3.6-3.9 3.7-7.1 7.6-7.6 1.1-.2 2.1.6 2.3 1.7.2 1.1-.6 2.1-1.7 2.3-2.2.3-3.9 2.1-4.2 4.2-.2 1-1 1.7-2 1.7z" />
    <path fill="#1e88e5" d="M33.5 17a9.5 9.5 0 1 0 0 19 9.5 9.5 0 1 0 0-19Z" />
    <path fill="#90caf9"
        d="M28.6 27h-.3c-.8-.2-1.3-1-1.2-1.8.5-2.6 2.5-4.6 5.1-5.1.8-.2 1.6.4 1.8 1.2s-.4 1.6-1.2 1.8c-1.4.3-2.4 1.4-2.7 2.7-.2.7-.8 1.2-1.5 1.2z" />
    <path fill="#1e88e5" d="M17.5 33a5.5 5.5 0 1 0 0 11 5.5 5.5 0 1 0 0-11Z" />
    <path fill="#90caf9"
        d="M15.1 39h-.2c-.5-.1-.9-.6-.8-1.2.3-1.4 1.4-2.5 2.7-2.7.5-.1 1.1.2 1.2.8s-.2 1.1-.8 1.2c-.6.1-1 .6-1.2 1.2-.1.4-.5.7-.9.7z" />
</svg>
  