<svg xmlns="http://www.w3.org/2000/svg" viewBox="0 0 48 48" width="48" height="48">
    <path fill="#5961c3"
        d="M36.68 7c-2.76 0-5.095 1.441-7.353 2.835a52.2 52.2 0 0 1-1.88 1.122v4.451c1.437-.608 2.753-1.412 3.981-2.169C33.293 12.088 35.056 11 36.68 11c1.831 0 3.32 1.385 3.32 3.087 0 .871-.248 2.897-2.54 2.913h-.018c-.539 0-.935-.165-1.196-.33-.146-.092-.437-.67-1.57-.67h-1.931c-.675-.004-1.109.57-.906 1.214a5.057 5.057 0 0 0 1.268 2.039C34.22 20.365 35.799 21 37.444 21h.042C41.321 20.975 44 18.132 44 14.087 44 10.179 40.716 7 36.68 7z" />
    <path fill="#7b83eb"
        d="M5 29.683a1 1 0 0 1 .679-.941c.763-.264 1.344-.721 2.073-1.304C9.11 26.352 10.801 25 14.003 25s4.893 1.352 6.25 2.438c1.176.941 1.953 1.562 3.752 1.562 1.797 0 2.573-.621 3.748-1.562C29.11 26.353 30.8 25 34.001 25c3.202 0 4.892 1.353 6.25 2.438.728.583 1.308 1.04 2.07 1.304a1 1 0 0 1 .679.941v2.085c0 .659-.624 1.123-1.264.967-1.814-.444-2.99-1.377-3.984-2.173C36.576 29.621 35.8 29 34.001 29c-1.797 0-2.573.621-3.748 1.562C28.896 31.647 27.206 33 24.005 33c-3.202 0-4.893-1.352-6.25-2.438C16.579 29.621 15.802 29 14.003 29c-1.8 0-2.577.621-3.753 1.563-.995.795-2.171 1.728-3.986 2.172-.64.156-1.264-.308-1.264-.967v-2.085zm38 10a1 1 0 0 0-.679-.941c-.762-.264-1.342-.721-2.07-1.304C38.893 36.353 37.203 35 34.001 35c-3.201 0-4.891 1.353-6.248 2.438-1.175.941-1.951 1.562-3.748 1.562-1.799 0-2.576-.621-3.752-1.562C18.896 36.352 17.205 35 14.003 35s-4.893 1.352-6.251 2.438c-.729.583-1.31 1.04-2.073 1.304a1 1 0 0 0-.679.941v2.085c0 .659.624 1.123 1.264.967 1.815-.444 2.991-1.377 3.986-2.172C11.426 39.621 12.203 39 14.003 39c1.799 0 2.576.621 3.752 1.562C19.112 41.648 20.803 43 24.005 43c3.201 0 4.891-1.353 6.248-2.438C31.428 39.621 32.204 39 34.001 39c1.799 0 2.575.621 3.751 1.562.994.796 2.17 1.729 3.984 2.173.64.156 1.264-.308 1.264-.967v-2.085zM20 5c-3.446 0-6.439 1.825-9.335 3.59-1.993 1.216-3.91 2.38-5.922 2.981-.434.13-.743.51-.743.963v2.057a1.01 1.01 0 0 0 1.262.972c2.791-.709 5.249-2.194 7.486-3.557C15.283 10.46 17.677 9 20 9c2.757 0 5 2.069 5 4.613 0 1.023-.286 4.362-3.971 4.387h-.026c-.957 0-1.849-.344-2.451-.945a2.267 2.267 0 0 1-.376-.484c-.188-.331-.512-.561-.893-.564l-2.141-.013a1.006 1.006 0 0 0-.978 1.262c.251.947.783 1.851 1.561 2.628C17.072 21.23 18.994 22 21.004 22h.052C25.733 21.969 29 18.521 29 13.613 29 8.864 24.963 5 20 5z" />
</svg>
  