<svg xmlns="http://www.w3.org/2000/svg" viewBox="0 0 48 48" width="48" height="48">
    <linearGradient id="space1" x1="12.26" x2="16.587" y1="4.43" y2="42.579"
        gradientUnits="userSpaceOnUse">
        <stop offset="0" stop-color="#33bef0" />
        <stop offset="1" stop-color="#0a85d9" />
    </linearGradient>
    <path fill="url(#space1)"
        d="M26 17H4V8a3 3 0 0 1 3-3h2.246c1.135 0 2.237.386 3.123 1.096L26 17zM4 40a3 3 0 0 0 3 3h2.246a4.994 4.994 0 0 0 3.123-1.096L26 31H4v9z" />
    <path fill="#35c1f1"
        d="M8.142 22H3a1 1 0 0 1-1-1v-3a1 1 0 0 1 1-1h5.101c.594 0 1.169.213 1.62.6l.646.555a1.817 1.817 0 0 1-.042 2.792l-.62.501A2.488 2.488 0 0 1 8.142 22zm0 9H3a1 1 0 0 1-1-1v-3a1 1 0 0 1 1-1h5.101c.594 0 1.169.213 1.62.6l.646.555a1.817 1.817 0 0 1-.042 2.792l-.62.501A2.488 2.488 0 0 1 8.142 31z" />
    <linearGradient id="space2" x1="25.648" x2="26.749" y1="16.81" y2="30.516"
        gradientUnits="userSpaceOnUse">
        <stop offset="0" stop-color="#a3ffff" />
        <stop offset=".223" stop-color="#9dfbff" />
        <stop offset=".53" stop-color="#8bf1ff" />
        <stop offset=".885" stop-color="#6ee0ff" />
        <stop offset="1" stop-color="#63daff" />
    </linearGradient>
    <path fill="url(#space2)"
        d="M36.696 31H7V17h29.696c2.142 0 4.21.777 5.822 2.188l2.152 1.883a3.892 3.892 0 0 1 0 5.858l-2.152 1.883A8.836 8.836 0 0 1 36.696 31z" />
    <path fill="#199be2" d="M41 24a3 3 0 0 1-3 3v-6a3 3 0 0 1 3 3z" />
</svg>
  