<svg xmlns="http://www.w3.org/2000/svg" viewBox="0 0 48 48" width="48" height="48">
    <linearGradient id="a" x1="24" x2="24" y1="6.121" y2="42.039" gradientUnits="userSpaceOnUse">
        <stop offset="0" stop-color="#5961c3" />
        <stop offset=".002" stop-color="#5961c3" />
        <stop offset=".616" stop-color="#424ab2" />
        <stop offset="1" stop-color="#3a41ac" />
    </linearGradient>
    <path fill="url(#a)"
        d="M40 42H8c-1.1 0-2-.9-2-2V8c0-1.1.9-2 2-2h32c1.1 0 2 .9 2 2v32c0 1.1-.9 2-2 2z" />
    <path fill="#fff"
        d="M31.78 15c.373 1.234.578 2.541.578 3.897 0 7.434-6.027 13.461-13.461 13.461-1.356 0-2.663-.205-3.897-.578 2.178 3.151 5.811 5.22 9.932 5.22C31.596 37 37 31.596 37 24.932c0-4.121-2.068-7.754-5.22-9.932z" />
    <circle cx="17.5" cy="12.5" r="1.5" fill="#989ef5" />
    <circle cx="24" cy="17" r="1" fill="#646dd1" />
    <circle cx="21" cy="24" r="1" fill="#646dd1" />
    <circle cx="12.5" cy="20.5" r="1.5" fill="#8a91f2" />
</svg>