<svg xmlns="http://www.w3.org/2000/svg" viewBox="0 0 48 48" width="48" height="48">
  <linearGradient id="tropical1" x1="12.314" x2="12.314" y1="34.011" y2="25.696"
    gradientUnits="userSpaceOnUse">
    <stop offset="0" stop-color="#c26715" />
    <stop offset=".508" stop-color="#b85515" />
    <stop offset="1" stop-color="#ad3f16" />
  </linearGradient>
  <path fill="url(#tropical1)"
    d="M5 36c11.006-3.427 13.534-22.999 13.534-22.999l1.09-.001S20 28 14 36H5z" />
  <path fill="#107c42" d="m19 13.17 10-10a8.32 8.32 0 0 0-10 8.151v1.849z" />
  <path fill="#21a366" d="M19 13h15.973c-1.825-2.425-4.718-4-7.986-4S20.825 10.575 19 13z" />
  <path fill="#33c481"
    d="M20.698 13h-1.86l11 11A9.31 9.31 0 0 0 30 22.302 9.302 9.302 0 0 0 20.698 13z" />
  <path fill="#107c42" d="m19 13.17-10-10a8.32 8.32 0 0 1 10 8.151v1.849z" />
  <path fill="#21a366" d="M19 13H3.027c1.825-2.425 4.718-4 7.986-4s6.162 1.575 7.987 4z" />
  <path fill="#33c481"
    d="M17.302 13h1.86l-11 11A9.31 9.31 0 0 1 8 22.302 9.302 9.302 0 0 1 17.302 13z" />
  <linearGradient id="b" x1="19.5" x2="19.5" y1="33.961" y2="41.995" gradientUnits="userSpaceOnUse">
    <stop offset="0" stop-color="#ffd869" />
    <stop offset="1" stop-color="#fec52b" />
  </linearGradient>
  <path fill="url(#b)" d="M22.299 34.693 36 42H5a2 2 0 0 1-2-2v-6h16.527a5.89 5.89 0 0 1 2.772.693z" />
  <linearGradient id="c" x1="33.57" x2="33.57" y1="33.961" y2="41.995"
    gradientUnits="userSpaceOnUse">
    <stop offset="0" stop-color="#2aa4f4" />
    <stop offset="1" stop-color="#007ad9" />
  </linearGradient>
  <path fill="url(#c)"
    d="M42 35c-1.657 0-3-1-3-1s-1.343 1-3 1-3-1-3-1-1.343 1-3 1-3-1-3-1-1.343 1-3 1c-.706 0-1.347-.183-1.86-.392L36 42h7a2 2 0 0 0 2-2v-6s-1.343 1-3 1z" />
</svg>
  