<svg xmlns="http://www.w3.org/2000/svg" viewBox="0 0 48 48" width="48" height="48">
    <defs>
        <linearGradient id="water1" x1="24" x2="24" y1="556.127" y2="530.015"
            gradientTransform="matrix(1 0 0 -1 0 572)"
            gradientUnits="userSpaceOnUse">
            <stop offset="0" stop-color="#2aa4f4" />
            <stop offset="1" stop-color="#007ad9" />
        </linearGradient>
    </defs>
    <path fill="#47c1ff"
        d="M42 13a5.607 5.607 0 0 1-3-1 5.607 5.607 0 0 1-3 1 5.607 5.607 0 0 1-3-1 5.607 5.607 0 0 1-3 1 5.607 5.607 0 0 1-3-1 5.607 5.607 0 0 1-3 1 5.607 5.607 0 0 1-3-1 5.607 5.607 0 0 1-3 1 5.607 5.607 0 0 1-3-1 5.607 5.607 0 0 1-3 1 5.607 5.607 0 0 1-3-1 5.607 5.607 0 0 1-3 1 5.607 5.607 0 0 1-3-1v22a4 4 0 0 0 4 4h34a4 4 0 0 0 4-4V12a5.607 5.607 0 0 1-3 1Z" />
    <path fill="url(#water1)"
        d="M42 17a5.607 5.607 0 0 1-3-1 5.607 5.607 0 0 1-3 1 5.607 5.607 0 0 1-3-1 5.607 5.607 0 0 1-3 1 5.607 5.607 0 0 1-3-1 5.607 5.607 0 0 1-3 1 5.607 5.607 0 0 1-3-1 5.607 5.607 0 0 1-3 1 5.607 5.607 0 0 1-3-1 5.607 5.607 0 0 1-3 1 5.607 5.607 0 0 1-3-1 5.607 5.607 0 0 1-3 1 5.607 5.607 0 0 1-3-1v22a4 4 0 0 0 4 4h34a4 4 0 0 0 4-4V16a5.607 5.607 0 0 1-3 1Z" />
</svg>
  