<svg xmlns="http://www.w3.org/2000/svg" viewBox="0 0 48 48" width="48" height="48">
    <linearGradient id="a" x1="10.26" x2="34.643" y1="7.516" y2="40.188"
        gradientUnits="userSpaceOnUse">
        <stop offset="0" stop-color="#7b83eb" />
        <stop offset="1" stop-color="#007ad9" />
    </linearGradient>
    <path fill="url(#a)"
        d="M44 17.933c0 .597-.526 1.074-1.119.999-2.611-.332-4.084-1.805-5.295-3.017C36.435 14.762 35.673 14 34.001 14c-1.67 0-2.432.762-3.584 1.914C29.043 17.289 27.333 19 24.005 19c-3.329 0-5.04-1.711-6.415-3.086C16.437 14.762 15.675 14 14.003 14c-1.673 0-2.435.762-3.588 1.915-1.212 1.211-2.685 2.684-5.297 3.016A1.003 1.003 0 0 1 4 17.933v-2.024c0-.494.366-.89.85-.986 1.12-.221 1.799-.9 2.737-1.837C8.962 11.711 10.674 10 14.003 10s5.04 1.711 6.415 3.086C21.571 14.238 22.333 15 24.005 15c1.67 0 2.432-.762 3.584-1.914C28.963 11.711 30.673 10 34.001 10s5.04 1.711 6.414 3.086c.937.937 1.616 1.616 2.735 1.837.484.096.85.492.85.986v2.024zm0 15.976c0-.494-.366-.89-.85-.986-1.119-.221-1.798-.9-2.735-1.837C39.041 29.711 37.329 28 34.001 28s-5.038 1.711-6.412 3.086C26.437 32.238 25.675 33 24.005 33c-1.672 0-2.434-.762-3.587-1.914C19.043 29.711 17.332 28 14.003 28s-5.041 1.711-6.416 3.086c-.938.937-1.617 1.616-2.737 1.837-.484.095-.85.492-.85.986v2.024c0 .597.526 1.074 1.119.999 2.612-.332 4.085-1.805 5.297-3.016C11.568 32.762 12.33 32 14.003 32c1.672 0 2.434.762 3.587 1.914C18.965 35.289 20.676 37 24.005 37c3.328 0 5.038-1.711 6.412-3.086C31.569 32.762 32.331 32 34.001 32c1.672 0 2.434.762 3.586 1.914 1.211 1.212 2.684 2.685 5.295 3.017A1.003 1.003 0 0 0 44 35.933v-2.024z" />
</svg>
  