<svg xmlns="http://www.w3.org/2000/svg" viewBox="0 0 48 48" width="48" height="48">
    <linearGradient id="whale1" x1="21.5" x2="21.5" y1=".618" y2="14.141"
        gradientUnits="userSpaceOnUse">
        <stop offset="0" stop-color="#0d61a9" />
        <stop offset="1" stop-color="#16528c" />
    </linearGradient>
    <path fill="url(#whale1)"
        d="M24 8.143C24 5 24 3 23.25 3 21.869 3 19 6 19 8.143 19 9.563 20.119 12 21.5 12S24 9.563 24 8.143z" />
    <path fill="url(#whale1)"
        d="M24 12.857C24 16 24 18 23 18c-1.381 0-4-2.75-4-5.143C19 11.437 20.119 9 21.5 9s2.5 2.437 2.5 3.857z" />
    <linearGradient id="whale2" x1="-9.818" x2="47.57" y1="32.725" y2="32.725"
        gradientUnits="userSpaceOnUse">
        <stop offset="0" stop-color="#32bdef" />
        <stop offset="1" stop-color="#1ea2e4" />
    </linearGradient>
    <path fill="url(#whale2)"
        d="M43 24.97v.5c0 9.59-7.73 17.45-17.32 17.5C10.54 43.04 4 33.79 4 23.97c0-.49.03-.99.09-1.49C6.88 30.28 14.74 35 24 35c8.35 0 15.57-3.84 18.95-10.32.04.09.05.19.05.29z" />
    <linearGradient id="whale3" x1="-9.477" x2="24.898" y1="21.483" y2="21.483"
        gradientUnits="userSpaceOnUse">
        <stop offset="0" stop-color="#199ae0" />
        <stop offset="1" stop-color="#0782d8" />
    </linearGradient>
    <path fill="url(#whale3)"
        d="M42 23.97H18.9c-3.71 0-6.15-3.92-4.49-7.23 1.49-2.96 3.81-3.77 5.09-3.77v-.004a2.5 2.5 0 1 0 0-5c-.031 0-.059.008-.089.009-8.789.053-14.554 7.808-15.321 14.505C6.88 30.28 14.74 35 24 35c8.35 0 15.57-3.84 18.95-10.32a.99.99 0 0 0-.95-.71z" />
    <circle cx="35" cy="28" r="1" fill="#4c4c4c" />
    <path fill="url(#whale3)" d="M26 46a4 4 0 0 0 4-4v-3a5 5 0 0 0-5-5v11a1 1 0 0 0 1 1z" />
</svg>
  