<svg viewBox="0 0 48 48" fill="none" xmlns="http://www.w3.org/2000/svg" width="48" height="48">
    <path d="M4 27.75a1.25 1.25 0 1 0 2.5 0V24H4v3.75Z" fill="#464646" />
    <path d="M4 20.25a1.25 1.25 0 1 1 2.5 0V24H4v-3.75Z" fill="#C4C4C4" />
    <path d="M9 31.083a1.25 1.25 0 1 0 2.5 0V24H9v7.083Z" fill="#464646" />
    <path d="M9 16.917a1.25 1.25 0 1 1 2.5 0V24H9v-7.083Z" fill="#C4C4C4" />
    <path
        d="M13.583 36.083a1.25 1.25 0 0 0 2.5 0V24h-2.5v12.083Z"
        fill="#464646"
    />
    <path
        d="M13.583 11.917a1.25 1.25 0 0 1 2.5 0V24h-2.5V11.917Z"
        fill="#C4C4C4"
    />
    <path
        d="M18.167 39.417a1.25 1.25 0 0 0 2.5 0V24h-2.5v15.417Z"
        fill="#464646"
    />
    <path
        d="M18.167 8.583a1.25 1.25 0 1 1 2.5 0V24h-2.5V8.583Z"
        fill="#C4C4C4"
    />
    <path
        d="M22.75 42.75a1.25 1.25 0 1 0 2.5 0V24h-2.5v18.75Z"
        fill="#464646"
    />
    <path
        d="M22.75 5.25a1.25 1.25 0 1 1 2.5 0V24h-2.5V5.25Z"
        fill="#C4C4C4"
    />
    <path
        d="M36.5 31.083a1.25 1.25 0 1 0 2.5 0V24h-2.5v7.083Z"
        fill="#464646"
    />
    <path
        d="M36.5 16.917a1.25 1.25 0 1 1 2.5 0V24h-2.5v-7.083Z"
        fill="#C4C4C4"
    />
    <path
        d="M31.917 36.083a1.25 1.25 0 1 0 2.5 0V24h-2.5v12.083Z"
        fill="#464646"
    />
    <path
        d="M31.917 11.917a1.25 1.25 0 1 1 2.5 0V24h-2.5V11.917Z"
        fill="#C4C4C4"
    />
    <path
        d="M27.333 39.417a1.25 1.25 0 0 0 2.5 0V24h-2.5v15.417Z"
        fill="#464646"
    />
    <path
        d="M27.333 8.583a1.25 1.25 0 0 1 2.5 0V24h-2.5V8.583Z"
        fill="#C4C4C4"
    />
    <path
        d="M41.5 27.75a1.25 1.25 0 1 0 2.5 0V24h-2.5v3.75Z"
        fill="#464646"
    />
    <path
        d="M41.5 20.25a1.25 1.25 0 1 1 2.5 0V24h-2.5v-3.75Z"
        fill="#C4C4C4"
    />
</svg>
  