<svg width="48" height="48" viewBox="0 0 48 48" fill="none" xmlns="http://www.w3.org/2000/svg">
	<path
		d="M25.512 22.696h-3.273L19.713 36.26l2.87 1.623c1.075.71 1.638.714 2.527 0l2.928-1.623-2.526-13.565Z"
		fill="#7A8897" />
	<path
		d="M39.708 31.044 34.01 18.58l-8.44 4.405 3.229 18.03c.228.65.463.608.976.173l9.933-9.275c.14-.254.129-.451 0-.87Zm-31.608 0 5.642-12.406 8.497 4.347-3.23 18.03c-.227.65-.462.608-.975.173L8.1 31.913c-.14-.254-.13-.451 0-.87Z"
		fill="#E2EDF1" />
	<path d="m34.01 18.618-1.666-3.69-8.497 4.29v3.667c.666.184 1.23.237 2.056 0l8.107-4.267Z"
		fill="#F0F3F4" />
	<path d="m30.163 9.826 2.181 5.101-8.497 4.29v-9.97l5.052-.117c.593.027.874.167 1.264.696Z"
		fill="#F0ABC4" />
	<path d="m17.531 9.826-2.182 5.101 8.498 4.29v-9.97l-5.053-.117c-.592.027-.873.167-1.263.696Z"
		fill="#EE97BA" />
	<path d="m19.655 6.986-.746 2.376 9.76-.058-1.033-2.318L23.79 6l-4.134.986Z" fill="#A0AAB6" />
	<path
		d="m22.412 22.985-2.642-1.1-11.425 9.564 14.066-8.464Zm3.042 0 2.642-1.1 11.426 9.564-14.067-8.464Z"
		fill="#C8D8DD" />
	<path d="m13.742 18.638 1.607-3.71 8.498 4.29v3.652c-.67.185-1.122.296-1.952.057l-8.153-4.29Z"
		fill="#F0F3F4" />
	<path d="M23.675 25.246 21.32 37.072c1.722 1.624 3.126 1.786 4.995 0l-2.641-11.826Z"
		fill="#8897A7" />
</svg>
  