<svg xmlns="http://www.w3.org/2000/svg" viewBox="0 0 48 48" width="48" height="48">
    <linearGradient id="coffee1" x1="12.742" x2="35.022" y1="10.579" y2="38.319"
        gradientUnits="userSpaceOnUse">
        <stop offset="0" stop-color="#ffd869" />
        <stop offset="1" stop-color="#fec52b" />
    </linearGradient>
    <path fill="url(#coffee1)"
        d="m10.5 11 2.83 30.187A2 2 0 0 0 15.321 43h17.357a2 2 0 0 0 1.991-1.813L37.5 11h-27z" />
    <linearGradient id="coffee2" x1="24" x2="24" y1="9.07" y2="11.008"
        gradientUnits="userSpaceOnUse">
        <stop offset="0" stop-color="#a34f27" />
        <stop offset=".587" stop-color="#8b3817" />
        <stop offset="1" stop-color="#802d10" />
    </linearGradient>
    <path fill="url(#coffee2)" d="M38 9H10a1 1 0 0 0-1 1v1h30v-1a1 1 0 0 0-1-1z" />
    <linearGradient id="coffee3" x1="24" x2="24" y1="4.992" y2="9.028"
        gradientUnits="userSpaceOnUse">
        <stop offset="0" stop-color="#a34f27" />
        <stop offset=".374" stop-color="#a04c25" />
        <stop offset=".668" stop-color="#96421e" />
        <stop offset=".933" stop-color="#853214" />
        <stop offset="1" stop-color="#802d10" />
    </linearGradient>
    <path fill="url(#coffee3)" d="M35 5H13a2 2 0 0 0-2 2v2h26V7a2 2 0 0 0-2-2z" />
    <path fill="url(#coffee3)"
        d="M36.791 18H11.209a.5.5 0 0 0-.498.546l1.581 17a.5.5 0 0 0 .498.454h22.42a.5.5 0 0 0 .498-.454l1.581-17a.5.5 0 0 0-.498-.546z" />
    <circle cx="24" cy="27" r="6" fill="url(#coffee1)" />
</svg>
  