<svg xmlns="http://www.w3.org/2000/svg" viewBox="0 0 48 48" width="48" height="48">
    <path fill="#4527a0"
        d="M38.158 13.504c-4.921-4.489-14.532-3-21.466 3.324s-8.567 15.091-3.646 19.579 14.532 3 21.466-3.324 8.567-15.09 3.646-19.579z" />
    <path fill="#5e35b1"
        d="M14.045 14.823c2.614-2.175 5.524-4.013 8.581-4.797 1.521-.385 3.052-.525 4.526-.361 1.472.163 2.891.643 4.145 1.383.605.352 1.256.841 1.626 1.223.417.455.868 1.056 1.151 1.609.587 1.136.803 2.291.613 3.566-.377 2.569-2.274 5.299-4.504 7.635l-.864.875-.411.39-.433.388a21.37 21.37 0 0 1-1.838 1.454c-.621.435-1.255.815-1.826 1.071-.289.138-.57.223-.779.271a1.67 1.67 0 0 1 .057-.452c.093-.379.333-.887.697-1.408.374-.535.81-1.036 1.391-1.607a16.321 16.321 0 0 0 2.057-2.494c.628-.959 1.208-2.076 1.506-3.453.298-1.361.237-3.027-.5-4.526a5.973 5.973 0 0 0-.712-1.129c-.095-.113-.137-.183-.402-.436l-.14-.128a7.836 7.836 0 0 0-.36-.295l-.308-.212a5.444 5.444 0 0 0-2.719-.847c-1.733-.042-2.923.463-3.961.938-1.034.5-1.908 1.071-2.729 1.67-.82.6-1.574 1.23-2.304 1.9-.76.688-1.412 1.421-2.044 2.134a31.371 31.371 0 0 0-2.399 3.12c1.933-.464 4.11.466 5.354 2.101.399-.483.814-.958 1.248-1.415a27.766 27.766 0 0 1 1.701-1.664 21.836 21.836 0 0 1 1.839-1.455c.623-.437 1.258-.82 1.834-1.081.299-.144.588-.235.807-.286.001.101-.006.217-.039.367-.151.763-.932 1.935-2.006 2.991-1.366 1.43-2.903 3.172-3.579 5.866-.319 1.339-.299 2.99.389 4.494a6.092 6.092 0 0 0 .893 1.418c.048.053.105.121.217.231l.13.122c.171.161.363.315.565.457.809.58 1.824.897 2.691.957 1.763.104 2.976-.396 4.029-.857 1.046-.489 1.927-1.054 2.755-1.647a27.224 27.224 0 0 0 2.319-1.884c.184-.167.366-.335.548-.516l.536-.551c.327-.348.651-.702.968-1.063 1.267-1.447 2.458-3.011 3.459-4.783.991-1.767 1.817-3.775 2.057-6.049.255-2.256-.265-4.773-1.509-6.693a12.662 12.662 0 0 0-2.138-2.571c-.941-.82-1.783-1.324-2.74-1.818-3.75-1.927-8.304-2.059-12.021-.641-3.756 1.368-6.807 3.746-9.393 6.38-.334.344-.64.675-.935 1.002-.353.38-.63.732-.923 1.099a35.268 35.268 0 0 0-1.621 2.242c-1.017 1.53-1.929 3.127-2.658 4.812-1.474 3.328-2.339 7.063-1.738 10.615.063-3.587 1.389-6.921 3.182-9.869 1.832-2.918 4.049-5.684 6.662-7.793zm10.258 3.634c.011.004 0 .003-.017 0h.017zm-.594 11.115h-.016c-.004-.003.003-.002.016 0z" />
    <path fill="#7e57c2"
        d="M37.78 24.18c-.43 1.4-1.04 2.7-1.78 3.82-1.55 2.34-3.81 4.04-6.4 5.17-2.48 1.11-5.25 1.7-8 1.86-.38-.14-.75-.34-1.09-.58-.2-.14-.39-.3-.56-.46l-.13-.12c-.11-.11-.17-.18-.22-.23a5.28 5.28 0 0 1-.24-.31c-.28-.37-.48-.73-.65-1.11-.69-1.5-.71-3.15-.39-4.49.68-2.7 2.21-4.44 3.58-5.87 1.07-1.05 1.85-2.23 2.01-2.99.03-.15.04-.27.03-.37-.21.06-.5.15-.8.29-.58.26-1.21.64-1.84 1.08-.62.44-1.25.94-1.84 1.46-.56.5-1.13 1.06-1.7 1.66-.43.46-.85.93-1.24 1.42-1.25-1.64-3.43-2.57-5.36-2.11.74-1.1 1.55-2.14 2.4-3.12.63-.71 1.28-1.44 2.04-2.13.73-.67 1.49-1.3 2.31-1.9.82-.6 1.69-1.17 2.73-1.67 1.03-.47 2.22-.98 3.96-.94.85.03 1.87.3 2.72.85l.3.21c.13.1.25.19.36.3l.14.12c.27.26.31.33.41.44.31.4.52.75.71 1.13.74 1.5.8 3.17.5 4.53-.3 1.37-.88 2.49-1.51 3.45-.63.95-1.35 1.78-2.05 2.49-.58.57-1.02 1.07-1.4 1.61-.36.52-.6 1.03-.69 1.41-.05.19-.06.33-.06.45.21-.05.49-.13.78-.27.57-.26 1.21-.64 1.83-1.07.62-.44 1.24-.93 1.83-1.46l.44-.38.41-.39.86-.88c2.23-2.34 4.13-5.07 4.51-7.63.19-1.28-.03-2.43-.62-3.57-.28-.55-.73-1.15-1.15-1.61-.37-.38-1.02-.87-1.62-1.22a10.63 10.63 0 0 0-4.15-1.39c-1.47-.16-3-.02-4.52.37-3.06.78-5.97 2.62-8.59 4.79-1.98 1.6-3.73 3.58-5.26 5.72.78-1.4 1.61-2.63 2.22-3.54 1.77-2.64 4.92-7.35 11-9 1.08-.29 8.31-2.26 13 2 3.75 3.41 4.28 9.35 2.78 14.18z" />
    <path fill="#5e35b1"
        d="M33.902 32.999c-2.614 2.175-5.524 4.013-8.581 4.797-1.521.385-3.052.525-4.526.361a10.442 10.442 0 0 1-4.145-1.383c-.605-.352-1.256-.841-1.626-1.223-.417-.455-.868-1.056-1.151-1.609-.587-1.136-.803-2.291-.613-3.566.377-2.569 2.274-5.299 4.504-7.635l.864-.875.411-.39.433-.388a21.37 21.37 0 0 1 1.838-1.454c.069-.048.137-.086.206-.133C25.27 19.637 28.249 18.205 29 16c.108-.318.429-1.261 0-2-.944-1.625-5.015-1.417-10.257.383-.268.176-.53.354-.785.536a27.224 27.224 0 0 0-2.319 1.884c-.184.167-.366.335-.548.516l-.536.551c-.327.348-.651.702-.968 1.063-1.267 1.447-2.458 3.011-3.459 4.783-.991 1.767-1.817 3.775-2.057 6.049-.255 2.256.265 4.773 1.509 6.693a12.662 12.662 0 0 0 2.138 2.571c.941.82 1.783 1.324 2.74 1.818 3.75 1.927 8.304 2.059 12.021.641 3.756-1.368 6.807-3.746 9.393-6.38.334-.344.64-.675.935-1.002.353-.38.63-.732.923-1.099a35.268 35.268 0 0 0 1.621-2.242c1.017-1.53 1.929-3.127 2.658-4.812 1.473-3.329 2.338-7.064 1.737-10.616-.063 3.587-1.389 6.921-3.182 9.869-1.832 2.918-4.049 5.684-6.662 7.793z" />
    <path fill="#9575cd"
        d="M23.892 26.26c.827-.344 3.703-1.657 5.097-4.819.167-.378 1.933-4.511.011-6.441-1.987-1.995-6.489-.203-7 0-1.123.447-2.459 1.247-2.626 1.347-.722.432-1.512.966-2.374 1.653-1.589 1.266-4.156 3.356-6 7-.829 1.638-2.202 4.352-2 8 .261 4.7 2.967 7.897 4 9-1.225-1.109-4.271-4.184-5-9-.537-3.546.436-6.364 1-8 1.17-3.39 2.954-5.551 4.57-7.508.496-.6 2.573-3.078 5.878-5.435 1.119-.798 2.334-1.53 3.717-2.065 1.373-.529 2.957-.856 4.597-.672 1.64.166 3.212.881 4.444 1.831.28.212.676.552.873.738.31.289.602.597.871.948a6.74 6.74 0 0 1 1.211 2.429c.481 1.821.142 3.605-.396 5.047-.55 1.465-1.308 2.719-2.129 3.874-1.679 2.311-3.526 4.204-5.699 6.037-.336.284-2.608.819-3.525-.299-.655-.798-.493-2.31.48-3.665z" />
    <path fill="#9575cd"
        d="M26.108 20.74c-1.223 2.327-2.653 1.85-5.097 4.819-1.435 1.743-2.464 3.822-2.157 5.192.066.349.202.679.428 1.011.108.165.248.333.396.49.257.266.345.343.561.537.224.201 1.559 1 2.487 1.23 1.32.328 3.658-.045 6.241-1.382 2.912-1.506 4.649-3.469 5.739-4.723 1.203-1.385 2.787-3.243 3.832-6.154.519-1.447 1.483-4.139.888-7.133C38.513 10.039 34.873 7.561 34 7c1.088.599 4.842 2.841 6.319 7.405 1.122 3.466.391 6.476-.044 7.967-.76 2.606-2.094 5.018-3.845 7.136-1.784 1.986-3.643 3.807-5.878 5.435-1.119.798-2.334 1.53-3.717 2.065-1.373.529-2.957.856-4.597.672a8.838 8.838 0 0 1-1.343-.258c-1.558-.432-2.608-1.203-3.101-1.573a10.133 10.133 0 0 1-.873-.737 7.596 7.596 0 0 1-.87-.949 6.742 6.742 0 0 1-1.212-2.429c-.48-1.821-.142-3.604.396-5.047.549-1.465 1.308-2.719 2.128-3.873 1.679-2.311 3.526-4.205 5.699-6.038.166-.14 2.63-.798 3.525.299.88 1.078-.263 3.253-.479 3.665z" />
    <circle cx="31.951" cy="11.407" r="1" fill="#ede7f6" />
    <circle cx="24.358" cy="34" r="1" fill="#ede7f6" />
    <circle cx="17" cy="17.358" r="1" fill="#ede7f6" />
    <circle cx="37.451" cy="15.907" r=".5" fill="#ede7f6" />
    <path fill="#ede7f6" d="M14.321 31.358a1.321 1.321 0 1 0 0 2.642 1.321 1.321 0 0 0 0-2.642z" />
    <circle cx="10.5" cy="26.858" r=".5" fill="#ede7f6" />
    <circle cx="15.5" cy="24.858" r=".5" fill="#ede7f6" />
    <ellipse cx="11.5" cy="16.858" fill="#ede7f6" rx=".474" ry=".5" />
    <ellipse cx="28.5" cy="33.858" fill="#ede7f6" rx=".474" ry=".5" />
    <circle cx="36.5" cy="28.858" r=".5" fill="#ede7f6" />
    <circle cx="40.5" cy="21.858" r=".5" fill="#ede7f6" />
    <circle cx="35.5" cy="21.858" r=".5" fill="#ede7f6" />
    <circle cx="33.5" cy="16.858" r=".5" fill="#ede7f6" />
    <ellipse cx="25" cy="23" fill="#b39ddb" rx="9" ry="7" transform="rotate(-50.869 25 23)" />
    <ellipse cx="25" cy="23" fill="#d1c4e9" rx="7" ry="5" transform="rotate(-50.869 25 23)" />
    <ellipse cx="25" cy="23" fill="#ede7f6" rx="5" ry="3" transform="rotate(-50.869 25 23)" />
    <circle cx="31" cy="26.358" r="1" fill="#ede7f6" />
    <circle cx="30.5" cy="19.858" r=".5" fill="#ede7f6" />
    <circle cx="17.5" cy="27.858" r=".5" fill="#ede7f6" />
    <ellipse cx="25.5" cy="16.858" fill="#ede7f6" rx=".474" ry=".5" />
</svg>
  