<svg xmlns="http://www.w3.org/2000/svg" viewBox="0 0 48 48" width="48" height="48">
    <radialGradient id="fan1" cx="23.275" cy="25.945" r="27.169" gradientUnits="userSpaceOnUse">
        <stop offset=".294" stop-color="#8ba4b1" />
        <stop offset=".333" stop-color="#9cb5c5" />
        <stop offset=".368" stop-color="#a6c2d2" />
        <stop offset=".405" stop-color="#aac6d7" />
    </radialGradient>
    <path fill="url(#fan1)"
        d="M42 15.546c0 .622-.117 1.245-.332 1.828-.479 1.303-1.467 2.776-2.726 3.364-.939.438-2.012.638-3.028.435-1.407-.28-2.127-1.684-4.195-1.684-1.948 0-2.837 1.606-3.324 3.395-.106.36-.159.741-.159 1.133 0 .413.064.826.18 1.207-3.24-1.514-5.319-4.826-5.319-8.638 0-5.263 4.112-9.726 9.375-9.726.307 0 .614.021.921.064 2.085.288 3.994 1.26 5.557 2.703.828.765 1.584 1.537 2.125 2.521.427.777.719 1.747.863 2.629.042.255.062.512.062.769z" />
    <path fill="url(#fan1)"
        d="M15.546 6c.622 0 1.245.117 1.828.332 1.303.479 2.776 1.467 3.364 2.726.438.939.638 2.012.435 3.028-.28 1.407-1.684 2.127-1.684 4.195 0 1.948 1.606 2.837 3.395 3.324.36.106.741.159 1.133.159.413 0 .826-.064 1.207-.18-1.514 3.24-4.826 5.319-8.638 5.319-5.263 0-9.726-4.112-9.726-9.375 0-.307.021-.614.064-.921.288-2.085 1.26-3.994 2.703-5.557.765-.828 1.537-1.584 2.521-2.125.777-.427 1.747-.719 2.629-.863.255-.042.512-.062.769-.062z" />
    <path fill="url(#fan1)"
        d="M6 32.454c0-.622.117-1.245.332-1.828.479-1.303 1.467-2.776 2.726-3.364.939-.438 2.012-.638 3.028-.435 1.407.28 2.127 1.684 4.195 1.684 1.948 0 2.837-1.606 3.324-3.395.106-.36.159-.741.159-1.133 0-.413-.064-.826-.18-1.207 3.24 1.514 5.319 4.826 5.319 8.638 0 5.263-4.112 9.726-9.375 9.726-.307 0-.614-.021-.921-.064-2.085-.288-3.994-1.26-5.557-2.703-.828-.765-1.584-1.537-2.125-2.521-.427-.777-.719-1.747-.863-2.629A4.729 4.729 0 0 1 6 32.454z" />
    <path fill="url(#fan1)"
        d="M32.454 42a5.307 5.307 0 0 1-1.828-.332c-1.303-.479-2.776-1.467-3.364-2.726-.438-.939-.638-2.012-.435-3.028.28-1.407 1.684-2.127 1.684-4.195 0-1.948-1.606-2.837-3.395-3.324a4.008 4.008 0 0 0-1.133-.159c-.413 0-.826.064-1.207.18 1.514-3.24 4.826-5.319 8.638-5.319 5.263 0 9.726 4.112 9.726 9.375 0 .307-.021.614-.064.921-.288 2.085-1.26 3.994-2.703 5.557-.765.828-1.537 1.584-2.521 2.125-.777.427-1.747.719-2.629.863a4.729 4.729 0 0 1-.769.062z" />
    <circle cx="24" cy="24" r="6.353" fill="#ccd8dc" />
    <circle cx="24" cy="24" r="3.176" fill="#2b454e" />
</svg>
  