<svg xmlns="http://www.w3.org/2000/svg" viewBox="0 0 48 48" width="48" height="48">
    <path fill="#b85515" d="M20.999 35h6v8a1 1 0 0 1-1 1h-4a1 1 0 0 1-1-1Z" />
    <path fill="#107c42"
        d="M23.997 12.873 9.312 34.239A1.762 1.762 0 0 0 10.763 37h26.472a1.76 1.76 0 0 0 1.451-2.757Z" />
    <path fill="#21a366"
        d="M23.999 7.839 13.286 24.301A1.746 1.746 0 0 0 14.751 27h18.496a1.748 1.748 0 0 0 1.465-2.703Z" />
    <path fill="#33c481"
        d="m22.613 4.316-5.374 9.11A1.705 1.705 0 0 0 18.707 16H29.29a1.71 1.71 0 0 0 1.472-2.575l-5.374-9.11a1.612 1.612 0 0 0-2.774.001Z" />
</svg>
  