<svg xmlns="http://www.w3.org/2000/svg"  viewBox="0 0 48 48" width="48px" height="48px"><radialGradient id="LSTojJ_ZouZaI60ZwWIGja" cx="14.978" cy="14.799" r="34.069" gradientUnits="userSpaceOnUse"><stop offset="0" stop-color="#7b83eb"/><stop offset="1" stop-color="#5961c3"/></radialGradient><path fill="url(#LSTojJ_ZouZaI60ZwWIGja)" d="M40,37H8c-1.105,0-2-0.895-2-2V8c0-1.105,0.895-2,2-2h32c1.105,0,2,0.895,2,2v27	C42,36.105,41.105,37,40,37z"/><linearGradient id="LSTojJ_ZouZaI60ZwWIGjb" x1="19" x2="19" y1="27.614" y2="41.035" gradientUnits="userSpaceOnUse"><stop offset="0" stop-color="#5c65d6"/><stop offset=".999" stop-color="#464eb0"/></linearGradient><path fill="url(#LSTojJ_ZouZaI60ZwWIGjb)" d="M15,28c-3.309,0-6.388,0.509-9,1.375V40c0,1.105,0.895,2,2,2h21.133	C30.942,40.57,32,38.851,32,37C32,32.029,24.389,28,15,28z"/><linearGradient id="LSTojJ_ZouZaI60ZwWIGjc" x1="28.706" x2="32.366" y1="8.953" y2="19.006" gradientUnits="userSpaceOnUse"><stop offset="0" stop-color="#3940a4"/><stop offset="1" stop-color="#293091"/></linearGradient><path fill="url(#LSTojJ_ZouZaI60ZwWIGjc)" d="M37.339,17.534C37.751,16.96,38,16.261,38,15.5c0-1.777-1.33-3.229-3.046-3.454	C34.74,10.883,33.725,10,32.5,10s-2.24,0.883-2.454,2.046C28.33,12.271,27,13.723,27,15.5c0,0.761,0.249,1.46,0.661,2.034	C26.667,18.151,26,19.244,26,20.5c0,1.933,1.567,3.5,3.5,3.5c0.061,0,0.118-0.015,0.178-0.018c0.237,0.68,0.712,1.244,1.322,1.603	v4.882C31,30.761,31.224,31,31.5,31h2c0.276,0,0.5-0.239,0.5-0.533v-4.882c0.61-0.359,1.085-0.923,1.322-1.603	C35.382,23.985,35.439,24,35.5,24c1.933,0,3.5-1.567,3.5-3.5C39,19.244,38.333,18.151,37.339,17.534z"/><linearGradient id="LSTojJ_ZouZaI60ZwWIGjd" x1="24" x2="24" y1="31.038" y2="47.557" gradientUnits="userSpaceOnUse"><stop offset="0" stop-color="#3940a4"/><stop offset="1" stop-color="#293091"/></linearGradient><path fill="url(#LSTojJ_ZouZaI60ZwWIGjd)" d="M42,31v1c-2-2-5-3-9.5-3c-4.472,0-9.437,2.962-13.092,5.286	C16.605,36.068,13.346,37,10.025,37L6,37v3c0,1.105,0.895,2,2,2h32c1.105,0,2-0.895,2-2V31z"/><radialGradient id="LSTojJ_ZouZaI60ZwWIGje" cx="18.565" cy="21.239" r="9.559" gradientUnits="userSpaceOnUse"><stop offset="0" stop-color="#6d75d6"/><stop offset=".123" stop-color="#8189de"/><stop offset=".384" stop-color="#a7adec"/><stop offset=".625" stop-color="#c3c7f6"/><stop offset=".838" stop-color="#d3d6fd"/><stop offset="1" stop-color="#d9dcff"/></radialGradient><path fill="url(#LSTojJ_ZouZaI60ZwWIGje)" d="M20,15c0-2.766-2.238-5-5-5s-5,2.234-5,5c0,2.762,2.238,5,5,5S20,17.762,20,15"/></svg>