<svg xmlns="http://www.w3.org/2000/svg" viewBox="0 0 48 48" width="48" height="48">
    <linearGradient id="plane1" x1="24" x2="34" y1="-330.407" y2="-330.407"
        gradientTransform="matrix(0 1 1 0 338 0)" gradientUnits="userSpaceOnUse">
        <stop offset="0" stop-color="#3079d6" />
        <stop offset="1" stop-color="#297cd2" />
    </linearGradient>
    <path fill="url(#plane1)"
        d="m6 24-1.761 8.804A1 1 0 0 0 5.22 34h1.51a2 2 0 0 0 1.789-1.106L10.966 28 6 24z" />
    <path fill="url(#plane1)"
        d="m19 28-1.877 16.89a1 1 0 0 0 .994 1.11H19.7a2 2 0 0 0 1.828-1.188L29 28H19z" />
    <path fill="url(#plane1)"
        d="m10.966 20-2.447-4.894A2 2 0 0 0 6.73 14H5.22a1 1 0 0 0-.981 1.196L6 24l4.966-4z" />
    <path fill="url(#plane1)"
        d="M29 20 21.528 3.188A1.999 1.999 0 0 0 19.7 2h-1.583a1 1 0 0 0-.994 1.11L19 20h10z" />
    <linearGradient id="plane2" x1="20" x2="28" y1="-313" y2="-313"
        gradientTransform="matrix(0 1 1 0 338 0)" gradientUnits="userSpaceOnUse">
        <stop offset="0" stop-color="#42a3f2" />
        <stop offset="1" stop-color="#42a4eb" />
    </linearGradient>
    <path fill="url(#plane2)" d="M8 20h34v8H8z" />
    <circle cx="42" cy="24" r="4" fill="url(#plane2)" />
    <circle cx="8" cy="24" r="4" fill="url(#plane2)" />
</svg>