<svg xmlns="http://www.w3.org/2000/svg" viewBox="0 0 48 48" width="48px" height="48px">
    <path fill="#b2c6d6"
        d="M24,36c-0.553,0-1-0.447-1-1V6c0-0.553,0.447-1,1-1s1,0.447,1,1v29C25,35.553,24.553,36,24,36	z" />
    <path fill="#c767e5"
        d="M44,23.981l-5,0.038C39,24.019,30,9,23.981,9C41,9,44,23.981,44,23.981z" />
    <path fill="#ac4ad5"
        d="M40,24c0,0-2.239,2-5,2s-5-2-5-2S21.239,9,24,9C35,9,40,21,40,24z" />
    <path fill="#c767e5"
        d="M4,23.981l5,0.038C9,24.019,18,9,24.019,9C7,9,4,23.981,4,23.981z" />
    <path fill="#ac4ad5"
        d="M8,24c0,0,2.239,2,5,2s5-2,5-2s8.761-15,6-15C13,9,8,21,8,24z" />
    <path fill="#c767e5"
        d="M40,24c0,0,0.895,1,2,1s2-1,2-1s-0.895-1-2-1S40,24,40,24z" />
    <path fill="#c767e5"
        d="M4,24c0,0,0.895,1,2,1s2-1,2-1s-0.895-1-2-1S4,24,4,24z" />
    <path fill="#c767e5"
        d="M30,24c0,0-2.686,2-6,2s-6-2-6-2c0-14,6-15,6-15S30,10,30,24z" />
    <path fill="#64717c"
        d="M20.631,43c-2.009,0-3.752-1.36-4.238-3.31l-0.362-1.447c-0.135-0.536,0.191-1.079,0.727-1.213	c0.54-0.137,1.079,0.191,1.213,0.727l0.362,1.448C18.597,40.262,19.542,41,20.631,41C21.938,41,23,39.938,23,38.631V35	c0-0.553,0.447-1,1-1s1,0.447,1,1v3.631C25,41.04,23.04,43,20.631,43z" />
    <linearGradient id="pMc4wNm0GAtHvXZKWku~ij" x1="6.068" x2="6.721" y1="7.548" y2="12.051"
        gradientUnits="userSpaceOnUse">
        <stop offset="0" stop-color="#2aa4f4" />
        <stop offset=".595" stop-color="#0f80e3" />
        <stop offset="1" stop-color="#006dd9" />
    </linearGradient>
    <path fill="url(#pMc4wNm0GAtHvXZKWku~ij)"
        d="M8,10.5C8,11.328,7.328,12,6.5,12S5,11.328,5,10.5s1.5-3,1.5-3S8,9.672,8,10.5z" />
    <path fill="url(#pMc4wNm0GAtHvXZKWku~ij)"
        d="M44,10.5c0,0.828-0.672,1.5-1.5,1.5S41,11.328,41,10.5s1.5-3,1.5-3S44,9.672,44,10.5z" />
    <path fill="url(#pMc4wNm0GAtHvXZKWku~ij)"
        d="M36,6c0,0.552-0.448,1-1,1s-1-0.448-1-1s1-2,1-2S36,5.448,36,6z" />
    <path fill="url(#pMc4wNm0GAtHvXZKWku~ij)"
        d="M15,6c0,0.552-0.448,1-1,1s-1-0.448-1-1s1-2,1-2S15,5.448,15,6z" />
</svg>