<svg width="48" height="48" viewBox="0 0 48 48" fill="none" xmlns="http://www.w3.org/2000/svg">
    <path
        d="M46.775 35.987 35.77 14.157a2.065 2.065 0 0 0-1.906-1.142V13H14v26h30.906a2.08 2.08 0 0 0 1.869-3.013Z"
        fill="#F2A91C" />
    <path
        d="M12.205 14.123 1.187 36.103A2 2 0 0 0 2.975 39H25.01a2 2 0 0 0 1.788-2.896l-11.017-21.98a2 2 0 0 0-3.576-.001Z"
        fill="#FEC337" />
    <path d="M13.103 21.567 4.5 39h19l-8.603-17.433a1 1 0 0 0-1.794 0Z" fill="#404D3F" />
    <path
        d="M39.048 14.649a1.2 1.2 0 1 1-1.697-1.697C37.822 12.483 40 12 40 12s-.483 2.18-.952 2.649Zm-13-6a1.2 1.2 0 1 1-1.696-1.697C24.82 6.483 27 6 27 6s-.483 2.18-.952 2.649Zm5 7a1.2 1.2 0 1 1-1.696-1.697C29.82 13.483 32 13 32 13s-.483 2.18-.952 2.649Zm1.366-4.235a2 2 0 1 1-2.828-2.828C30.366 7.805 34 7 34 7s-.805 3.633-1.586 4.414Zm1 9a2 2 0 1 1-2.828-2.828C31.366 16.805 35 16 35 16s-.805 3.633-1.586 4.414Zm-9-5a2 2 0 1 1-2.828-2.828C22.366 11.805 26 11 26 11s-.805 3.633-1.586 4.414Z"
        fill="#199BE2" />
</svg>
  