<svg xmlns="http://www.w3.org/2000/svg" viewBox="0 0 48 48" width="48" height="48">
    <radialGradient id="thunder1" cx="18.906" cy="22.876" r="19.009" gradientUnits="userSpaceOnUse">
        <stop offset=".313" stop-color="#fcfcfc" />
        <stop offset=".465" stop-color="#eff0f1" />
        <stop offset=".741" stop-color="#ced1d3" />
        <stop offset="1" stop-color="#aaafb3" />
    </radialGradient>
    <path fill="url(#thunder1)"
        d="M15 5C8.925 5 4 9.925 4 16s4.925 11 11 11 11-4.925 11-11S21.075 5 15 5z" />
    <path fill="#bbb" d="M14 8a2 2 0 1 0-.001 3.999A2 2 0 0 0 14 8z" />
    <path fill="#ccc" d="M9 15a1 1 0 1 0 0 2 1 1 0 0 0 0-2z" />
    <linearGradient id="thunder2" x1="21.313" x2="25.618" y1="13.079" y2="38.448"
        gradientUnits="userSpaceOnUse">
        <stop offset="0" stop-color="#bac0ff" />
        <stop offset=".398" stop-color="#8a91e7" />
        <stop offset=".796" stop-color="#6069d1" />
        <stop offset="1" stop-color="#5059c9" />
    </linearGradient>
    <path fill="url(#thunder2)"
        d="M34 18c-.331 0-.657.018-.98.049C30.741 14.99 27.108 13 23 13c-5.713 0-10.52 3.837-12.012 9.071C7.049 22.569 4 25.925 4 30a8 8 0 0 0 8 8h22c5.523 0 10-4.477 10-10s-4.477-10-10-10z" />
    <path fill="#199be2"
        d="M34.414 45.414a2 2 0 1 1-2.828-2.828C32.367 41.805 36 41 36 41s-.805 3.633-1.586 4.414zm-17 1a2 2 0 1 1-2.828-2.828C15.367 42.805 19 42 19 42s-.805 3.633-1.586 4.414z" />
    <path fill="#ffd000"
        d="M25 42.644V36h-4.483a1 1 0 0 1-.919-1.394l4.41-10.289c.221-.517.992-.359.992.204V32h4.437a1 1 0 0 1 .908 1.419l-4.358 9.442c-.232.504-.987.338-.987-.217z" />
</svg>
  