<svg xmlns="http://www.w3.org/2000/svg" viewBox="0 0 48 48" width="48" height="48">
    <linearGradient id="train1" x1="34.5" x2="34.5" y1="45.187" y2="41.057"
        gradientUnits="userSpaceOnUse">
        <stop offset="0" stop-color="#c9c9c9" />
        <stop offset="1" stop-color="#b3b3b3" />
    </linearGradient>
    <path fill="url(#train1)" d="M35 39h-3l2 6h3z" />
    <path fill="url(#train1)" d="M11 45h3l2-6h-3z" />
    <path fill="#999"
        d="M42.255 5.612 25.018 1.076a3.991 3.991 0 0 0-2.036 0L5.745 5.612A.999.999 0 0 0 5 6.579V8a1 1 0 0 0 1.255.967L24 4.297l17.745 4.67A1 1 0 0 0 43 7.999v-1.42a.999.999 0 0 0-.745-.967z" />
    <linearGradient id="train3" x1="21.046" x2="27.034" y1="9.024" y2="41.76"
        gradientUnits="userSpaceOnUse">
        <stop offset="0" stop-color="#2aa4f4" />
        <stop offset="1" stop-color="#007ad9" />
    </linearGradient>
    <path fill="url(#train3)"
        d="M24 9c-5.176 0-9.013.804-11.51 1.579A4.982 4.982 0 0 0 9 15.348V35a5 5 0 0 0 5 5h20a5 5 0 0 0 5-5V15.348c0-2.183-1.405-4.122-3.49-4.769C33.013 9.804 29.176 9 24 9z" />
    <linearGradient id="train4" x1="30.016" x2="30.987" y1="14.833" y2="26.197"
        gradientUnits="userSpaceOnUse">
        <stop offset="0" stop-color="#0d61a9" />
        <stop offset="1" stop-color="#16528c" />
    </linearGradient>
    <path fill="url(#train4)"
        d="M34 26h-7a2 2 0 0 1-2-2v-7a2 2 0 0 1 2-2h7a2 2 0 0 1 2 2v7a2 2 0 0 1-2 2z" />
    <path fill="url(#train4)"
        d="M21 26h-7a2 2 0 0 1-2-2v-7a2 2 0 0 1 2-2h7a2 2 0 0 1 2 2v7a2 2 0 0 1-2 2z" />
    <circle cx="32.5" cy="34.5" r="2.5" fill="#fff" />
    <circle cx="15.5" cy="34.5" r="2.5" fill="#fff" />
</svg>
  