<svg xmlns="http://www.w3.org/2000/svg" viewBox="0 0 48 48" width="48" height="48">
    <path fill="#ffcf54" d="M41 14.75 45 6s-5 1-6.896 7.95a8.453 8.453 0 0 0 2.896.8Z" />
    <path fill="#fdcb4d" d="M13 27a4 4 0 1 1-3.998-4A4 4 0 0 1 13 27Z" />
    <path fill="#35c1f1"
        d="M23 31a4 4 0 1 1-3.998-4A4 4 0 0 1 23 31ZM7 41.5A1.5 1.5 0 1 1 5.5 40 1.5 1.5 0 0 1 7 41.5Zm34-27a1.5 1.5 0 1 1-1.5-1.5 1.5 1.5 0 0 1 1.5 1.5ZM31 28a4 4 0 1 1-3.998-4A4 4 0 0 1 31 28Z" />
    <path fill="#35c1f1"
        d="M6.512 42.607 17 34l-.874-5.782-11.622 12.16 2.008 2.229zM28.51 31.706l-8.127 3.049-2.62-7.56 7.812-2.934 2.935 7.445z" />
    <path fill="#e38101"
        d="m26.771 23.82-8.937 3.39a2.293 2.293 0 0 1-2.933-1.271 2.293 2.293 0 0 1 1.315-3.02l8.877-3.329a1 1 0 0 1 1.276.555l.972 2.36a1 1 0 0 1-.57 1.316Z" />
    <path fill="#35c1f1"
        d="M38.104 13.95 34 21l-4.982 3.545.966 6.119 6.84-7.444a2 2 0 0 0 .326-.477l3.743-7.685Z" />
</svg>
  