<svg xmlns="http://www.w3.org/2000/svg" viewBox="0 0 48 48" width="48" height="48">
    <path fill="#35c1f1"
        d="M10 6h28a2 2 0 0 1 2 2v32a2 2 0 0 1-2 2H10a2 2 0 0 1-2-2V8a2 2 0 0 1 2-2z" />
    <path fill="#50e6ff" d="M10 6h28a2 2 0 0 1 2 2v6H8V8a2 2 0 0 1 2-2z" />
    <path fill="#35c1f1"
        d="M29.5 8h7a.5.5 0 0 1 .5.5v3a.5.5 0 0 1-.5.5h-7a.5.5 0 0 1-.5-.5v-3a.5.5 0 0 1 .5-.5z" />
    <circle cx="24" cy="28" r="11" fill="#3079d6" />
    <path fill="#184f85" d="M24 20a8 8 0 1 0 0 16 8 8 0 0 0 0-16z" />
    <path fill="#3079d6"
        d="M30 30h2a1 1 0 0 0 1-1v-2a1 1 0 0 0-1-1h-2a1 1 0 0 0-1 1v2a1 1 0 0 0 1 1z" />
    <circle cx="16" cy="10" r="1" fill="#fff" />
    <circle cx="20" cy="10" r="1" fill="#fff" />
    <circle cx="12" cy="10" r="1" fill="#fff" />
</svg>
  