<svg xmlns="http://www.w3.org/2000/svg" x="0px" y="0px" width="100" height="100" viewBox="0 0 64 64">
    <path fill="#68e5fd"
        d="M45,41.04c0-1.697,2.406-5.261,3.486-6.776c0.251-0.352,0.777-0.352,1.028,0	C50.594,35.778,53,39.343,53,41.04c0,2.187-1.791,3.96-4,3.96S45,43.227,45,41.04z"></path>
    <path fill="#008aa9"
        d="M16.843,13.404L36.364,6c1.526-0.579,3.247,0.018,4.086,1.418v0c0.883,1.471,0.52,3.37-0.843,4.412	L25,23l-15,4v-3.681C10,18.913,12.724,14.967,16.843,13.404z"></path>
    <ellipse cx="32" cy="61" opacity=".3" rx="25" ry="3"></ellipse>
    <path fill="#37d0ee"
        d="M10,27v22c0,1.657,1.343,3,3,3h11c1.657,0,3-1.343,3-3V27h16v2c0,1.105,0.895,2,2,2h7	c1.105,0,2-0.895,2-2v-2.5c0-3.038-2.462-5.5-5.5-5.5H16C12.686,21,10,23.686,10,27z"></path>
    <path fill="#fff"
        d="M15,37V27c0-0.552,0.448-1,1-1c2.762,0,5-2.238,5-5h-5c-3.314,0-6,2.686-6,6v15 C12.762,42,15,39.762,15,37z"
        opacity=".3"></path>
    <path d="M27,49V27c-2.762,0-5,2.238-5,5v15h-2c-2.762,0-5,2.238-5,5h9C25.657,52,27,50.657,27,49z"
        opacity=".15"></path>
    <line x1="13.5" x2="13.5" y1="28.5" y2="34.5" fill="none" stroke="#fff" stroke-linecap="round"
        stroke-linejoin="round" stroke-miterlimit="10" stroke-width="3"></line>
</svg>