<svg xmlns="http://www.w3.org/2000/svg" viewBox="0 0 48 48" width="48" height="48">
    <path fill="#546E7A" d="M42 34H6V8s0-3 3-3 11 3 17 3 10-3 13-3 3 3 3 3v26z" />
    <path fill="#37474F"
        d="M32.701 24.936C32.262 14.724 30.97 7.328 30.97 7.328c-.003.037-.762 8.713-.191 19.264h.003C42.167 28.708 42 33.755 42 34v-4.479c-1.942-2.034-5.202-3.641-9.299-4.585zm-17.662 2.132s.001 0 0 0c.211-12.672 4.753-19.749 4.786-19.801C18 9 13.641 15.184 13.099 25.527c-3.067.964-5.519 2.338-7.099 3.994V34c0-.25-.25-4.438 9.035-6.931l.004-.001z" />
    <path fill="#8BC34A"
        d="m12.55 28.036.071-.813c.008-.239.038-.467.032-.722.01-.502-.015-1.005-.067-1.508a11.271 11.271 0 0 0-.727-2.969c-.376-.967-.9-1.892-1.546-2.747C9.664 18.429 8.902 17.635 8 17c1.026.417 1.979 1.035 2.854 1.759a12.536 12.536 0 0 1 2.325 2.552 13.235 13.235 0 0 1 1.598 3.168c.195.566.36 1.146.486 1.735.072.288.113.61.169.918l.118.832-3 .072zm17.9-.072.118-.832c.056-.308.097-.63.169-.918a14.91 14.91 0 0 1 .486-1.735c.396-1.131.93-2.205 1.598-3.168a12.51 12.51 0 0 1 2.325-2.552c.875-.724 1.828-1.342 2.854-1.759-.902.635-1.664 1.429-2.313 2.278a11.446 11.446 0 0 0-2.273 5.716 12.088 12.088 0 0 0-.067 1.508c-.006.255.024.482.032.722l.071.813-3-.073z" />
    <path fill="#8BC34A"
        d="M31.701 29.772c.296-.968.671-1.728 1.126-2.517.453-.771.991-1.491 1.617-2.121.627-.628 1.345-1.165 2.129-1.529A6.42 6.42 0 0 1 39 23c-1.549.563-2.692 1.71-3.354 3.032a8.813 8.813 0 0 0-.74 2.085c-.157.7-.261 1.49-.24 2.11l-2.965-.455zm-21.209-.33c.116-.559.175-1.248.197-1.887a11.975 11.975 0 0 0-.092-1.957C10.419 24.313 10.015 22.994 9 22c1.311.567 2.321 1.81 3.019 3.12.357.662.645 1.358.891 2.071.242.726.444 1.416.583 2.241l-3.001.01z" />
    <g fill="#42A5F5">
        <path d="M24 26a18 8 0 1 0 0 16 18 8 0 1 0 0-16Z" />
        <path d="M31 7H20s-5 7-5 22h15.928C30.052 16.491 31 7 31 7z" />
    </g>
    <path fill="#42A5F5"
        d="M32 29c2.454.977 6 2.421 6 4 0 2.945-7.372 5-14 5s-14-2.055-14-5c0-1.579 3.545-3.023 6-4" />
    <path fill="#90CAF9"
        d="M32 29c.959.205 1.905.45 2.846.76.941.317 1.866.679 2.782 1.301.436.328.942.727 1.183 1.547.059.174.063.494.066.568a2.847 2.847 0 0 1-.07.571 3.173 3.173 0 0 1-.391.95c-.701 1.114-1.673 1.691-2.588 2.225-3.77 1.943-7.786 2.484-11.835 2.577a31.133 31.133 0 0 1-6.008-.593c-1.971-.436-3.949-.945-5.815-1.98-.916-.533-1.886-1.111-2.59-2.227-.335-.563-.576-1.283-.4-2.064.252-.879.752-1.234 1.189-1.578.917-.621 1.843-.982 2.784-1.299A26.74 26.74 0 0 1 16 29c-.837.512-1.685.992-2.494 1.506-.798.516-1.613 1.043-2.185 1.665-.283.278-.493.67-.45.751-.002.181.114.444.322.668.43.475 1.189.916 1.991 1.232 1.638.621 3.452 1.048 5.282 1.285 1.834.256 3.683.395 5.54.394 1.83.026 3.7-.126 5.526-.39 1.83-.239 3.646-.662 5.284-1.285.802-.316 1.562-.76 1.993-1.234.4-.533.516-.711-.129-1.424-.572-.621-1.389-1.148-2.187-1.664-.807-.514-1.656-.993-2.493-1.504z" />
    <path fill="#90CAF9"
        d="M18 29.578C18 14.425 24 7 24 7s-3.5 6.578-3 22.578h-3zm6.003 0C24.003 20.578 27 10 27 10s-1 9.5 0 19.5l-2.997.078zM15 31c-.951.744.018 1.184.775 1.386.791.235 1.65.34 2.498.433 1.711.17 3.442.179 5.192.182 1.745-.01 3.494-.043 5.214-.203.856-.092 1.717-.191 2.521-.418.399-.104.798-.261 1.056-.48.128-.113.184-.227.138-.405-.057-.179-.218-.352-.394-.495.219.063.447.141.639.341.199.206.208.61.061.854-.273.513-.708.782-1.111 1.049-.84.488-1.73.817-2.632 1.05-1.804.484-3.643.664-5.474.699-1.827.037-3.689-.127-5.502-.604-.904-.247-1.801-.566-2.637-1.088-.401-.279-.83-.57-1.09-1.104-.138-.259-.104-.662.096-.865.198-.197.432-.275.65-.332z" />
    <path fill="#90CAF9"
        d="M19.5 28a1.5 1.5 0 1 0 0 3 1.5 1.5 0 1 0 0-3zm6 0a1.5 1.5 0 1 0 0 3 1.5 1.5 0 1 0 0-3z" />
</svg>
  