<svg xmlns="http://www.w3.org/2000/svg" viewBox="0 0 48 48" width="48" height="48">
    <path fill="#33c481"
        d="M31.589 35.195A17.225 17.225 0 0 1 32.96 43a17.248 17.248 0 0 1-4.55-6.489 17.225 17.225 0 0 1-1.371-7.805 17.236 17.236 0 0 1 4.549 6.489Z" />
    <path fill="#21a366" d="M32 43a1 1 0 0 1-1-1V11a1 1 0 0 1 2 0v31a1 1 0 0 1-1 1Z" />
    <path fill="#c26715" d="M32 24a2 2 0 0 1-2-2v-8a2 2 0 1 1 4 0v8a2 2 0 0 1-2 2Z" />
    <path fill="#107c42"
        d="M36.668 34.667A18.913 18.913 0 0 0 32 42a18.913 18.913 0 0 0 7.333-4.667A18.913 18.913 0 0 0 44 30a18.913 18.913 0 0 0-7.333 4.667Z" />
    <path fill="#33c481"
        d="M33.648 31.894A20.12 20.12 0 0 0 32.047 41a20.11 20.11 0 0 0 5.307-7.571 20.12 20.12 0 0 0 1.6-9.106 20.11 20.11 0 0 0-5.306 7.571Z" />
    <path fill="#2aa4f4"
        d="M5 5c4.222 2.111 10.556 6.861 10.556 11.611S5 26.375 5 33.5c0 6.333 7.389 9.5 7.389 9.5H43s-15.833-3.694-20.056-10.556c-3.225-5.241 2.112-9.5 2.112-15.833S11.333 5 11.333 5Z" />
</svg>
  