<svg xmlns="http://www.w3.org/2000/svg" viewBox="0 0 48 48" width="48px" height="48px">
    <path fill="#b133f0"
        d="M42,7v34c0,1.105-0.895,2-2,2h-5V5h5C41.105,5,42,5.895,42,7z" />
    <path fill="#e5e5e5"
        d="M40,7v34c0,1.105-0.895,2-2,2h-6V5h6C39.105,5,40,5.895,40,7z" />
    <path fill="#51189c"
        d="M13,7v34c0,1.105,0.895,2,2,2h1V5h-1C13.895,5,13,5.895,13,7z" />
    <path fill="#9f22e2"
        d="M36,5H16v38h20c1.105,0,2-0.895,2-2V7C38,5.895,37.105,5,36,5z" />
    <path
        d="M31.319,9H13v34h18.319C33.352,43,35,41.352,35,39.319V12.681C35,10.648,33.352,9,31.319,9z"
        opacity=".05" />
    <path
        d="M31.161,10H13v33h18.161C32.729,43,34,41.729,34,40.161V12.839C34,11.271,32.729,10,31.161,10z"
        opacity=".07" />
    <path fill="#1783bd" d="M33,13v28c0,1.105-0.895,2-2,2h-5V11h5C32.105,11,33,11.895,33,13z" />
    <path fill="#e5e5e5"
        d="M31,13v28c0,1.105-0.895,2-2,2h-6V11h6C30.105,11,31,11.895,31,13z" />
    <path fill="#16538c"
        d="M6,13v28c0,1.105,0.895,2,2,2h1V11H8C6.895,11,6,11.895,6,13z" />
    <path fill="#22a5e2"
        d="M27,11H9v32h18c1.105,0,2-0.895,2-2V13C29,11.895,28.105,11,27,11z" />
    <rect width="10" height="2" x="14" y="21" fill="#1b9de2" />
</svg>