<svg xmlns="http://www.w3.org/2000/svg" viewBox="0 0 48 48" width="48" height="48">
    <path fill="#d6a121" d="M17.5 33a2.5 2.5 0 1 0 0 5 2.5 2.5 0 0 0 0-5z" />
    <path fill="#d6a121"
        d="M13.5 32a2.5 2.5 0 1 0 0 5 2.5 2.5 0 0 0 0-5zm8 2a2.5 2.5 0 1 0 0 5 2.5 2.5 0 0 0 0-5z" />
    <path fill="#f7a72f"
        d="M41.952 24a5.998 5.998 0 0 1-3.531-1.149l-11.154-8.119A2.492 2.492 0 0 0 25.5 14h-11c-.724 0-1.371.313-1.827.804l-.016.007-8.99 9.99.005.004A2.485 2.485 0 0 0 3 26.5a2.5 2.5 0 0 0 4.268 1.768l1.606 1.997 1.956 3.477 14.972 4.076.125.019c.344.095.699.163 1.073.163h18V24h-3.048z" />
    <path fill="#d6a121"
        d="m19.599 20-7.409 8.977h8.809c2.808 0 4-1.079 4-2.977.001-1.483-2.822-3.828-5.4-6z" />
    <path fill="#297cd2"
        d="M5.26 30.529c-.323.357-.578.77-.751 1.219L3.06 35.501c-.276.714.469 1.394 1.155 1.055l3.614-1.783c.44-.217.836-.516 1.166-.879L20.033 21.72l-3.723-3.377L5.26 30.529zM32.179 4.655a2.514 2.514 0 0 0-3.55.165L17.98 16.509l3.723 3.377 10.641-11.68a2.513 2.513 0 0 0-.165-3.551z" />
    <path fill="#42a4eb" d="m16.309 18.344 3.723 3.377 1.672-1.834-3.723-3.377-1.672 1.834z" />
    <path fill="#f7a72f"
        d="M24.68 37.511 21.236 29c-.564 0-9.045-.993-9.045-.993l-.003.012C12.124 28.015 12.064 28 12 28a3 3 0 0 0-3 3 2.99 2.99 0 0 0 2.646 2.964l13.034 3.547z" />
    <circle cx="12" cy="31" r="2" fill="#fff0c9" />
</svg>
  