<svg xmlns="http://www.w3.org/2000/svg" viewBox="0 0 48 48" width="48" height="48">
    <defs>
        <linearGradient id="z8TGNRLT6bLMJddnO3Jx~c" x1="28.257" x2="34.822" y1="-138.257"
            y2="-144.822" data-name="Безымянный градиент 44"
            gradientTransform="matrix(1 0 0 -1 0 -124)" gradientUnits="userSpaceOnUse">
            <stop offset="0" stop-color="#fed100" />
            <stop offset="1" stop-color="#e36001" />
        </linearGradient>
    </defs>
    <path fill="#33c481"
        d="M5 42h38a2 2 0 0 0 2-2V28.969a1.997 1.997 0 0 0-1.993-2c-3.786-.002-12.243.276-19.007 2.53C14.095 32.802 9 37 5 42Z" />
    <path fill="#007ad9" d="M23 32h22v8a2 2 0 0 1-2 2H23V32Z" />
    <path fill="#21a366"
        d="M40.845 42H5a2 2 0 0 1-2-2V28.969a1.997 1.997 0 0 1 1.993-2c3.786-.002 12.243.276 19.007 2.53 8.788 2.93 13.79 6.566 17.6 10.841a1.001 1.001 0 0 1-.755 1.66Z" />
    <path
        d="M42.35 39.67c-4.24-4.75-9.43-8.07-16.71-10.66q-.42.105-.84.24c-.27.08-.54.16-.8.25 8.79 2.93 13.79 6.57 17.6 10.84a1.002 1.002 0 0 1-.75 1.66h1.72a1.14 1.14 0 0 0 .1-.19 1.96 1.96 0 0 0-.32-2.14Z"
        opacity=".05" />
    <path
        d="M41.97 40.01c-4.3-4.82-9.61-8.16-17.17-10.76-.27.08-.54.16-.8.25 8.79 2.93 13.79 6.57 17.6 10.84a1.002 1.002 0 0 1-.75 1.66h1.11a1.56 1.56 0 0 0 .26-.39 1.468 1.468 0 0 0-.25-1.6Z"
        opacity=".07" />
    <path fill="url(#z8TGNRLT6bLMJddnO3Jx~c)" d="M32 14a4 4 0 1 0 4 4 4 4 0 0 0-4-4Z" />
    <path fill="#b85515"
        d="M9.957 11.549h4.013v18.78a.67.67 0 0 1-.67.671h-2.674a.67.67 0 0 1-.669-.67Z" />
    <path
        d="M14.47 27.51c-.17-.02-.33-.04-.5-.05v2.87a.67.67 0 0 1-.67.67h-2.67a.67.67 0 0 1-.67-.67v-3.21l-.5-.03-.5-.03v3.27A1.673 1.673 0 0 0 10.63 32h2.67a1.673 1.673 0 0 0 1.67-1.67v-2.75c-.17-.03-.33-.05-.5-.07Z"
        opacity=".05" />
    <path
        d="M13.97 27.46v2.87a.67.67 0 0 1-.67.67h-2.67a.67.67 0 0 1-.67-.67v-3.21l-.5-.03v3.24a1.171 1.171 0 0 0 1.17 1.17h2.67a1.171 1.171 0 0 0 1.17-1.17v-2.82c-.17-.02-.33-.04-.5-.05Z"
        opacity=".07" />
    <path fill="#088242"
        d="M18.736 14.617A4.493 4.493 0 0 0 15.5 7c-.017 0-.033.005-.05.005a3.483 3.483 0 0 0-6.9 0C8.533 7.005 8.517 7 8.5 7a4.493 4.493 0 0 0-3.236 7.617 4.48 4.48 0 0 0 3.243 8.26 3.48 3.48 0 0 0 6.926-.018 4.481 4.481 0 0 0 3.303-8.242Z" />
</svg>
  