<svg xmlns="http://www.w3.org/2000/svg" width="100" height="100" viewBox="0 0 48 48">
    <path fill="#ee3d4a"
        d="M44 24c0 11.045-8.955 20-20 20S4 35.045 4 24 12.955 4 24 4s20 8.955 20 20z" />
    <circle cx="24" cy="24" r="16" fill="#fafafb" />
    <path fill="#ee3d4a"
        d="M36 24c0 6.627-5.373 12-12 12s-12-5.373-12-12 5.373-12 12-12 12 5.373 12 12z" />
    <circle cx="24" cy="24" r="8" fill="#fafafb" />
    <path fill="#ee3d4a" d="M28 24a4 4 0 1 1-8 0 4 4 0 0 1 8 0z" />
    <path
        d="M36.655 8.517 23.198 21.974a2 2 0 1 0 2.828 2.828l13.457-13.457a20.21 20.21 0 0 0-2.828-2.828z"
        opacity=".05" />
    <path
        d="M37.028 8.851 23.246 22.633a1.5 1.5 0 1 0 2.122 2.121L39.15 10.972a18.088 18.088 0 0 0-2.122-2.121z"
        opacity=".07" />
    <path fill="#297cd2"
        d="M35.003 12.997V9.243c0-.796.316-1.559.879-2.121l2.907-2.907a.71.71 0 0 1 1.212.502V8h3.284a.71.71 0 0 1 .502 1.212l-2.908 2.908a3.003 3.003 0 0 1-2.123.879l-3.753-.002z" />
    <path fill="#edbe00"
        d="M24 25a.999.999 0 0 1-.707-1.707l17-17a.999.999 0 1 1 1.414 1.414l-17 17A.997.997 0 0 1 24 25z" />
</svg>
  