<svg xmlns="http://www.w3.org/2000/svg" viewBox="0 0 48 48" width="48px" height="48px"
    baseProfile="basic">
    <path fill="#047ed6"
        d="M35,23.75h-3V22c0-4.411-3.589-8-8-8s-8,3.589-8,8v1.75h-3V22c0-6.065,4.935-11,11-11	s11,4.935,11,11V23.75z" />
    <path fill="#0362b0"
        d="M33,32h-2v-9h2c2.209,0,4,1.791,4,4v1C37,30.209,35.209,32,33,32z" />
    <path fill="#8f979e"
        d="M24.04,44c-0.01,0-0.03,0-0.04,0l0,0c-0.83,0-1.5-0.67-1.5-1.5l0,0c0-0.83,0.67-1.5,1.5-1.5	l0,0c0.01,0,0.03,0,0.04,0l0,0c0.01,0,0.02,0,0.029,0l0,0c0.83,0,1.5,0.66,1.5,1.49l0,0c0.011,0.829-0.659,1.5-1.489,1.51l0,0	C24.069,44,24.05,44,24.04,44z M17.51,42.92L17.51,42.92L17.51,42.92c-0.79-0.271-1.2-1.12-0.93-1.91l0,0	c0.27-0.78,1.12-1.2,1.899-0.93l0,0c0.79,0.27,1.2,1.13,0.931,1.91l0,0C19.2,42.609,18.62,43,17.99,43l0,0	C17.83,43,17.67,42.97,17.51,42.92z M28.66,41.97c-0.28-0.78,0.14-1.64,0.92-1.91l0,0c0.779-0.27,1.64,0.141,1.91,0.92l0,0	c0.27,0.78-0.141,1.641-0.921,1.91l0,0c-0.17,0.061-0.329,0.09-0.5,0.09l0,0C29.45,42.979,28.87,42.59,28.66,41.97z M11.729,39.78	c-0.66-0.511-0.779-1.45-0.27-2.101l0,0c0.51-0.66,1.45-0.78,2.109-0.27l0,0c0.65,0.51,0.771,1.46,0.261,2.109l0,0	c-0.3,0.38-0.74,0.58-1.181,0.58l0,0C12.319,40.1,12,39.99,11.729,39.78z M34.229,39.479c-0.51-0.649-0.399-1.59,0.25-2.109l0,0	c0.65-0.511,1.59-0.391,2.11,0.26l0,0c0.51,0.65,0.4,1.59-0.25,2.1l0,0c-0.28,0.221-0.61,0.32-0.93,0.32l0,0	C34.97,40.05,34.53,39.859,34.229,39.479z M7.27,34.939C6.81,34.25,7,33.319,7.7,32.87l0,0C8.39,32.41,9.319,32.6,9.78,33.3l0,0	c0.449,0.69,0.26,1.62-0.44,2.08l0,0c-0.25,0.16-0.53,0.24-0.82,0.24l0,0C8.03,35.62,7.56,35.39,7.27,34.939z M38.7,35.319	c-0.69-0.449-0.891-1.38-0.44-2.079l0,0c0.45-0.69,1.38-0.891,2.08-0.44l0,0c0.69,0.46,0.89,1.38,0.43,2.08l0,0	c-0.279,0.439-0.76,0.68-1.25,0.68l0,0C39.229,35.56,38.95,35.479,38.7,35.319z M4.609,28.92L4.609,28.92L4.609,28.92	C4.41,28.12,4.89,27.3,5.7,27.1l0,0c0.8-0.2,1.619,0.28,1.819,1.09l0,0c0.2,0.801-0.279,1.61-1.08,1.82l0,0	c-0.13,0.03-0.25,0.04-0.37,0.04l0,0C5.399,30.05,4.79,29.6,4.609,28.92z M41.59,29.939c-0.81-0.199-1.3-1.02-1.1-1.819l0,0	c0.21-0.801,1.02-1.29,1.819-1.09l0,0c0.811,0.199,1.29,1.01,1.09,1.819l0,0c-0.17,0.681-0.779,1.13-1.449,1.13l0,0	C41.83,29.979,41.71,29.97,41.59,29.939z M5.439,23.99c-0.83-0.07-1.439-0.801-1.37-1.62l0,0l0,0l0,0C4.13,21.54,4.85,20.93,5.68,21	l0,0c0.83,0.06,1.44,0.79,1.38,1.609l0,0c-0.069,0.79-0.72,1.381-1.5,1.381l0,0C5.52,23.99,5.479,23.99,5.439,23.99z M40.939,22.54	c-0.069-0.82,0.54-1.55,1.37-1.62l0,0c0.82-0.07,1.55,0.55,1.62,1.37l0,0l0,0l0,0c0.07,0.819-0.54,1.55-1.37,1.62l0,0	c-0.04,0.01-0.09,0.01-0.13,0.01l0,0C41.66,23.92,41,23.33,40.939,22.54z M6.45,17.96c-0.761-0.33-1.11-1.22-0.771-1.97l0,0	c0.33-0.761,1.21-1.11,1.97-0.771l0,0c0.761,0.33,1.101,1.21,0.771,1.97l0,0c-0.24,0.57-0.79,0.9-1.37,0.9l0,0	C6.85,18.09,6.64,18.05,6.45,17.96z M39.55,17.13c-0.34-0.76,0-1.64,0.76-1.98l0,0c0.76-0.34,1.65,0.011,1.98,0.761l0,0	c0.34,0.76,0,1.649-0.76,1.979l0,0c-0.2,0.09-0.4,0.13-0.61,0.13l0,0C40.35,18.02,39.8,17.689,39.55,17.13z M9.359,12.6	c-0.609-0.56-0.649-1.51-0.09-2.12l0,0l0,0l0,0C9.83,9.87,10.78,9.83,11.39,10.39l0,0c0.61,0.561,0.65,1.51,0.09,2.12l0,0	c-0.29,0.32-0.699,0.48-1.1,0.48l0,0C10.01,12.99,9.649,12.859,9.359,12.6z M36.47,12.46c-0.56-0.61-0.52-1.561,0.09-2.12l0,0	c0.601-0.56,1.55-0.521,2.11,0.08l0,0c0.57,0.61,0.53,1.56-0.08,2.12l0,0c-0.29,0.27-0.65,0.399-1.021,0.399l0,0	C37.17,12.939,36.77,12.78,36.47,12.46z M13.85,8.46c-0.39-0.72-0.12-1.63,0.601-2.03l0,0l0,0l0,0C15.18,6.03,16.09,6.3,16.49,7.03	l0,0c0.39,0.729,0.13,1.64-0.601,2.029l0,0c-0.229,0.13-0.47,0.181-0.72,0.181l0,0C14.64,9.24,14.13,8.96,13.85,8.46z M32.05,9.03	c-0.73-0.391-1-1.301-0.6-2.03l0,0c0.39-0.73,1.3-1,2.029-0.61l0,0c0.73,0.391,1,1.3,0.61,2.03l0,0c-0.28,0.51-0.79,0.79-1.33,0.79	l0,0C32.52,9.21,32.28,9.149,32.05,9.03z M19.439,6.01c-0.14-0.82,0.41-1.6,1.23-1.729l0,0c0.82-0.141,1.59,0.409,1.729,1.229l0,0	c0.141,0.81-0.409,1.59-1.229,1.72V7.24C21.09,7.25,21,7.26,20.92,7.26l0,0C20.2,7.26,19.56,6.74,19.439,6.01z M26.76,7.22v0.01	c-0.82-0.14-1.37-0.91-1.229-1.729l0,0c0.13-0.82,0.899-1.37,1.72-1.24l0,0c0.81,0.14,1.37,0.91,1.24,1.73l0,0	c-0.131,0.729-0.761,1.25-1.48,1.25l0,0C26.93,7.24,26.85,7.24,26.76,7.22z" />
    <path fill="#0362b0"
        d="M15,32h2v-9h-2c-2.209,0-4,1.791-4,4v1C11,30.209,12.791,32,15,32z" />
    <path fill="#1ea2e4"
        d="M32,32h-1.5c-0.552,0-1-0.448-1-1v-7c0-0.552,0.448-1,1-1H32V32z" />
    <path fill="#1ea2e4"
        d="M16,32h1.5c0.552,0,1-0.448,1-1v-7c0-0.552-0.448-1-1-1H16V32z" />
</svg>