<svg xmlns="http://www.w3.org/2000/svg" viewBox="0 0 48 48" width="48" height="48">
    <radialGradient id="relax~a" cx="24.063" cy="23.81" r="19.982" gradientUnits="userSpaceOnUse">
        <stop offset="0" stop-color="#ff6701" />
        <stop offset=".073" stop-color="#ff6f01" />
        <stop offset="1" stop-color="#fed100" />
    </radialGradient>
    <path fill="url(#relax~a)"
        d="M31.273 11.273C31.273 15.289 24 24 24 24s-7.273-8.711-7.273-12.727a7.273 7.273 0 0 1 14.546 0z" />
    <path fill="url(#relax~a)"
        d="M14.143 13.15C17.963 14.391 24 24 24 24s-10.532 4.225-14.352 2.984-5.91-5.344-4.669-9.164 5.344-5.911 9.164-4.67z" />
    <path fill="url(#relax~a)"
        d="M10.635 30.022C12.996 26.772 24 24 24 24s.764 11.322-1.597 14.571a7.273 7.273 0 0 1-11.768-8.549z" />
    <path fill="url(#relax~a)"
        d="M25.597 38.571C23.236 35.322 24 24 24 24s11.004 2.772 13.365 6.022a7.273 7.273 0 1 1-11.768 8.549z" />
    <path fill="url(#relax~a)"
        d="M38.352 26.984C34.532 28.225 24 24 24 24s6.037-9.609 9.857-10.85a7.273 7.273 0 0 1 4.495 13.834z" />
    <path fill="#e52030"
        d="M26.273 15.997C26.273 17.252 24 24 24 24s-2.273-6.748-2.273-8.003a2.273 2.273 0 0 1 4.546 0zm-9.182 3.368C18.285 19.753 24 24 24 24s-7.12.076-8.314-.312a2.272 2.272 0 1 1 1.405-4.323zm.366 9.774C18.195 28.123 24 24 24 24s-2.128 6.795-2.866 7.811a2.273 2.273 0 1 1-3.677-2.672zm9.409 2.672C26.128 30.795 24 24 24 24s5.805 4.123 6.543 5.139a2.273 2.273 0 1 1-3.677 2.672zm5.448-8.123C31.12 24.076 24 24 24 24s5.715-4.247 6.909-4.635a2.272 2.272 0 1 1 1.405 4.323z" />
</svg>
  